<?xml version="1.0" standalone="no"?>
<!DOCTYPE svg PUBLIC "-//W3C//DTD SVG 20010904//EN"
 "http://www.w3.org/TR/2001/REC-SVG-20010904/DTD/svg10.dtd">
<svg version="1.0" xmlns="http://www.w3.org/2000/svg"
 width="1520.000000pt" height="1520.000000pt" viewBox="0 0 1520.000000 1520.000000"
 preserveAspectRatio="xMidYMid meet">

<g transform="translate(0.000000,1520.000000) scale(0.100000,-0.100000)"
fill="#000000" stroke="none">
<path d="M6747 10294 c-2 -2 -47 -15 -99 -28 -98 -24 -248 -89 -298 -128 -17
-13 -58 -45 -93 -73 -185 -145 -298 -370 -355 -705 -6 -30 -19 -98 -31 -150
-31 -144 -83 -408 -92 -470 -4 -30 -13 -74 -18 -97 -19 -74 -30 -126 -42 -198
-7 -38 -21 -110 -32 -160 -10 -49 -23 -117 -28 -150 -4 -33 -13 -80 -19 -105
-11 -47 -25 -119 -59 -302 -11 -59 -22 -112 -25 -117 -3 -5 -10 -35 -15 -68
-5 -32 -21 -121 -36 -198 -14 -77 -30 -163 -35 -192 -5 -28 -16 -80 -24 -115
-9 -35 -20 -88 -25 -118 -15 -92 -50 -273 -61 -315 -5 -22 -19 -92 -30 -155
-85 -467 -111 -539 -242 -671 -84 -84 -157 -116 -312 -140 -111 -17 -192 -19
-966 -18 -872 0 -922 2 -1020 41 -56 22 -120 58 -120 66 0 5 -8 17 -18 28 -38
41 -60 81 -70 129 -21 92 -24 144 -14 192 6 26 16 95 23 153 14 127 22 182 42
280 8 41 20 113 26 160 22 169 41 301 62 417 11 65 27 168 34 228 8 61 21 148
29 195 8 47 26 164 41 260 14 96 30 189 35 205 5 17 12 57 15 90 3 33 17 114
30 180 12 66 28 163 34 215 6 52 25 176 40 275 29 179 41 259 81 535 12 80 30
186 41 235 10 50 19 106 19 125 0 19 5 53 10 75 17 69 40 246 39 299 0 28 -6
65 -12 83 -19 52 -85 123 -134 144 -62 26 -159 26 -218 -2 -53 -25 -130 -106
-138 -146 -4 -15 -13 -59 -22 -98 -9 -38 -18 -91 -20 -117 -3 -25 -14 -95 -26
-155 -11 -59 -24 -139 -29 -178 -5 -38 -16 -108 -24 -155 -8 -47 -17 -112 -21
-145 -3 -33 -10 -85 -15 -115 -5 -30 -17 -98 -26 -150 -8 -52 -19 -126 -23
-165 -5 -38 -13 -95 -19 -125 -6 -30 -16 -89 -23 -130 -6 -41 -17 -101 -25
-133 -8 -32 -14 -75 -14 -95 0 -20 -7 -73 -15 -117 -8 -44 -20 -116 -25 -160
-6 -44 -15 -96 -20 -115 -4 -19 -13 -73 -20 -120 -6 -47 -18 -125 -26 -175
-29 -184 -45 -292 -54 -360 -5 -38 -16 -108 -25 -155 -9 -47 -25 -148 -36
-225 -10 -77 -27 -178 -35 -225 -9 -47 -20 -117 -24 -157 -5 -39 -11 -80 -14
-90 -3 -10 -13 -70 -22 -133 -21 -145 -23 -362 -5 -455 23 -118 103 -299 161
-365 12 -14 34 -41 49 -60 56 -74 159 -151 281 -208 105 -50 130 -57 258 -76
88 -14 234 -16 990 -16 890 0 1060 5 1177 36 64 17 197 65 205 74 3 3 30 18
60 34 30 16 66 39 80 51 14 12 41 32 61 43 49 30 189 178 235 249 20 32 45 70
55 85 11 15 19 33 19 40 0 7 12 36 25 63 14 28 25 57 25 66 0 9 7 36 16 60 8
24 30 128 48 230 19 102 39 195 45 207 6 11 11 36 11 55 0 19 6 65 14 103 15
68 41 200 56 279 17 90 41 205 60 285 11 47 20 97 20 111 0 14 9 61 19 105 11
43 27 126 36 184 9 58 21 119 25 135 5 17 14 55 19 85 6 30 22 111 35 180 70
358 106 546 126 650 11 63 25 133 30 155 16 72 71 348 95 475 46 245 67 324
98 382 70 124 166 197 296 223 74 15 88 15 156 1 149 -30 228 -87 380 -275 33
-40 83 -99 110 -131 28 -31 75 -87 105 -124 30 -37 77 -93 104 -124 26 -32 66
-82 87 -112 22 -30 82 -102 134 -160 52 -58 111 -129 131 -158 21 -30 43 -56
49 -59 7 -2 27 -25 46 -51 18 -26 49 -66 68 -89 40 -46 55 -65 138 -168 31
-38 73 -89 92 -111 66 -77 84 -99 168 -204 46 -58 101 -123 122 -145 21 -22
55 -62 77 -90 21 -27 47 -59 56 -70 17 -21 35 -43 153 -192 66 -84 118 -148
225 -278 49 -60 94 -114 160 -195 19 -24 53 -64 76 -89 22 -25 51 -60 65 -77
66 -84 187 -234 219 -270 112 -129 138 -160 165 -195 39 -50 254 -312 299
-364 95 -111 141 -167 195 -235 33 -41 88 -109 123 -152 34 -42 124 -150 198
-240 201 -242 289 -320 457 -402 88 -43 125 -54 241 -77 78 -15 253 -7 342 16
79 20 239 95 276 130 15 14 32 25 38 25 23 0 147 124 199 198 45 65 72 121
138 290 5 13 9 36 9 52 0 16 6 47 14 67 8 21 20 72 25 113 12 84 34 209 61
350 10 52 23 127 30 165 6 39 17 104 25 145 7 41 19 107 25 145 7 39 19 104
27 145 8 41 19 102 25 135 19 119 59 351 68 395 5 25 16 83 24 130 8 47 33
180 55 295 22 116 42 230 46 255 11 85 57 335 70 385 8 28 16 77 20 110 6 55
28 189 55 340 40 216 52 285 60 325 5 25 16 90 25 145 9 55 21 118 25 140 5
22 12 54 15 70 4 17 13 73 20 125 8 52 21 142 30 200 14 86 15 116 5 165 -24
123 -124 205 -251 205 -50 0 -71 -6 -115 -31 -98 -56 -130 -121 -169 -353 -14
-77 -41 -233 -61 -346 -19 -113 -39 -227 -44 -255 -9 -60 -36 -208 -52 -285
-5 -30 -14 -80 -18 -110 -5 -30 -16 -93 -25 -140 -9 -47 -21 -107 -25 -135 -5
-27 -20 -115 -35 -195 -14 -80 -30 -170 -35 -200 -5 -30 -13 -77 -19 -105 -6
-27 -16 -77 -21 -110 -5 -33 -14 -82 -20 -110 -5 -27 -17 -95 -26 -150 -9 -55
-19 -104 -22 -110 -4 -5 -10 -37 -13 -70 -8 -74 -35 -235 -49 -295 -6 -25 -15
-76 -20 -115 -5 -38 -14 -92 -20 -120 -6 -27 -17 -88 -25 -135 -7 -47 -25
-146 -40 -220 -14 -74 -32 -175 -40 -225 -9 -49 -19 -110 -25 -135 -5 -25 -17
-88 -25 -140 -24 -141 -35 -201 -47 -245 -5 -22 -13 -65 -17 -95 -13 -106 -96
-221 -196 -270 -45 -23 -62 -25 -175 -25 -118 0 -128 2 -170 27 -66 39 -132
109 -360 388 -30 36 -82 99 -115 139 -33 40 -71 87 -85 105 -14 19 -116 143
-228 277 -248 297 -356 428 -402 486 -19 24 -69 83 -110 132 -41 49 -91 109
-110 135 -48 64 -181 220 -192 224 -4 2 -8 8 -8 14 0 6 -44 62 -97 125 -54 64
-107 127 -118 142 -28 38 -95 120 -129 158 -16 18 -61 72 -100 121 -39 48 -95
117 -124 153 -29 35 -56 69 -60 74 -17 23 -160 193 -189 225 -17 19 -45 53
-61 75 -16 22 -37 47 -47 55 -10 8 -36 40 -59 70 -22 30 -51 66 -64 80 -21 22
-179 214 -297 360 -24 30 -55 66 -67 80 -13 14 -39 45 -58 70 -19 25 -37 47
-41 50 -17 14 -109 130 -109 139 0 5 -4 11 -8 13 -5 2 -26 26 -47 53 -21 28
-47 59 -59 71 -11 11 -52 60 -91 108 -38 48 -80 100 -93 114 -82 94 -172 199
-198 233 -38 46 -115 121 -164 158 -19 14 -39 32 -43 38 -4 7 -12 13 -17 13
-5 0 -34 16 -64 35 -30 19 -60 35 -66 35 -5 0 -18 4 -28 9 -9 5 -44 16 -77 24
-33 9 -79 20 -101 26 -40 11 -297 15 -307 5z"/>
</g>
</svg>
